Coordinates
version=1
nRows=11
nColumns=36
inDegrees=yes

Units are S.I. units (second, meters, Newtons, ...)
If the header above contains a line with 'inDegrees', this indicates whether rotational values are in degrees (yes) or radians (no).

endheader
time	pelvis_tilt	pelvis_list	pelvis_rotation	pelvis_tx	pelvis_ty	pelvis_tz	hip_flexion_r	hip_adduction_r	hip_rotation_r	knee_angle_r	knee_angle_r_beta	ankle_angle_r	subtalar_angle_r	mtp_angle_r	hip_flexion_l	hip_adduction_l	hip_rotation_l	knee_angle_l	knee_angle_l_beta	ankle_angle_l	subtalar_angle_l	mtp_angle_l	lumbar_extension	lumbar_bending	lumbar_rotation	arm_flex_r	arm_add_r	arm_rot_r	elbow_flex_r	pro_sup_r	arm_flex_l	arm_add_l	arm_rot_l	elbow_flex_l	pro_sup_l
      2.86250000	    -17.99712460	     -2.30720164	      0.65506385	      0.14883839	      0.69615359	     -0.05504280	     78.70011125	     -9.58706307	      2.71674119	     91.32376843	      1.59390044	     24.55981633	    -16.39422644	     -7.49999987	     81.00815890	    -10.33881204	      6.33214528	     94.35631368	      1.64682834	     25.53750082	     -0.39773364	     -7.49999987	    -66.68142769	      0.89246966	      3.96930124	     59.88866477	    -24.06763691	      3.29789329	     49.31307465	     86.57175365	     58.84299674	    -15.95217072	     -2.21775188	     49.70805957	     68.31957018
      2.86666670	    -18.06442339	     -2.27772014	      0.60235789	      0.15357744	      0.69889269	     -0.05026905	     78.39516680	     -9.31727059	      2.65203142	     90.90306235	      1.58655774	     23.88203340	    -17.27647192	     -7.49999987	     80.44382239	    -10.72039113	      6.40930599	     93.83925250	      1.63780392	     26.07880618	      0.90080718	     -7.49999987	    -66.28857906	      0.77425103	      3.89855898	     59.91494425	    -24.23694962	      3.14245922	     50.24350548	     87.05645882	     59.16758585	    -16.02583022	     -2.89529580	     50.65264138	     68.51132277
      2.87083330	    -18.10162472	     -2.28558933	      0.61011938	      0.15666741	      0.70125332	     -0.04916223	     77.86123313	     -9.05641325	      2.61180532	     90.37299197	      1.57730626	     23.57111858	    -17.66866310	     -7.49999987	     79.86086065	    -11.09017891	      6.32485763	     93.24244943	      1.62738775	     26.36565338	      2.01234036	     -7.49999987	    -65.84950731	      0.76597682	      3.90808957	     59.77656915	    -24.39723348	      2.76072092	     51.27389657	     86.78398219	     59.28276260	    -16.04348099	     -3.55476167	     51.90869260	     68.34673415
      2.87500000	    -18.03773169	     -2.28091755	      0.44388299	      0.16092326	      0.70253049	     -0.05060076	     77.18519510	     -8.82144368	      2.37177068	     89.98772472	      1.57058208	     23.66653540	    -17.89230981	     -7.49999987	     79.05731550	    -11.53050953	      6.03967625	     92.67159456	      1.61742445	     26.50488077	      2.62852315	     -7.49999987	    -65.49911225	      0.57605737	      3.94784723	     59.80072763	    -24.53666182	      2.47760732	     51.91869434	     87.11869938	     59.57378602	    -15.98702354	     -3.98408241	     52.84800820	     68.49225950
      2.87916670	    -18.21585529	     -2.20402474	      0.26094517	      0.15956466	      0.70803870	     -0.05508738	     76.60990300	     -8.89356031	      2.04269392	     89.22810865	      1.55732428	     23.89908862	    -17.88208468	     -7.49999987	     78.53956540	    -11.50328932	      5.67436204	     92.15434163	      1.60839668	     26.67926429	      2.67877328	     -7.49999987	    -64.75830119	      0.53228179	      3.92343236	     60.04521217	    -24.58990269	      2.40289531	     52.21316405	     87.19764367	     59.79395300	    -15.91372018	     -4.05192452	     53.24746882	     68.53170963
      2.88333330	    -17.82344141	     -2.10632777	     -0.00288917	      0.16001933	      0.70975036	     -0.05478598	     75.56654745	     -8.92590675	      1.78222182	     88.69442664	      1.54800977	     24.72409007	    -17.55718225	     -7.49999987	     77.59615096	    -11.43601548	      5.53504608	     91.89033774	      1.60378894	     26.92557914	      2.42364964	     -7.49999987	    -64.99463252	      0.34939724	      3.84847382	     60.29088648	    -24.89167404	      1.92894145	     54.01782090	     88.06102255	     59.81172399	    -15.81803401	     -5.19705288	     55.92193427	     68.87690446
      2.88750000	    -17.48483538	     -1.97959072	     -0.18248113	      0.16477198	      0.71293840	     -0.05222076	     74.47625797	     -8.90618279	      1.44486109	     88.23532154	      1.53999688	     25.39932149	    -18.00179332	     -7.49999987	     76.72415983	    -11.30249955	      5.55562219	     91.62431192	      1.59914592	     26.72469417	      1.88368891	     -7.49999987	    -64.86762560	      0.18659914	      3.83581279	     60.64552576	    -25.10414994	      1.77880395	     54.46700064	     88.40325816	     60.29052649	    -15.89810755	     -5.04075739	     56.75658470	     69.07380151
      2.89166670	    -17.22640080	     -1.81631010	     -0.27373475	      0.16940652	      0.71293155	     -0.05099910	     73.62019675	     -8.80164103	      1.28692669	     88.31725331	      1.54142686	     26.08609626	    -18.69600081	     -7.49999987	     76.07573683	    -11.15076998	      5.65911292	     91.65436048	      1.59967036	     26.84198324	      1.53381630	     -7.49999987	    -64.42318990	      0.03581838	      3.66459542	     60.54477766	    -25.25687210	      1.70272450	     55.13436931	     87.92270989	     60.45666946	    -16.05533468	     -5.00689942	     57.57419215	     68.82426742
      2.89583330	    -17.08370665	     -1.71334819	     -0.21328595	      0.17117753	      0.71499911	     -0.05053190	     73.05778386	     -8.67080349	      1.31490077	     88.44789637	      1.54370701	     26.64134978	    -18.97402488	     -7.49999987	     75.67820850	    -10.96108675	      5.69585072	     91.70076916	      1.60048035	     26.93868843	      1.34270529	     -7.49999987	    -63.74898794	      0.06751636	      3.51592355	     60.51748194	    -25.40550807	      1.65171501	     55.44096145	     87.72970068	     60.75606825	    -16.14798776	     -4.94416384	     58.08151476	     68.77180379
      2.90000000	    -16.31196095	     -1.55955801	     -0.06165796	      0.17765489	      0.71180239	     -0.05260814	     72.19977963	     -8.81123026	      1.59216357	     89.24326912	      1.55758888	     27.65625906	    -18.82776138	     -7.49999987	     74.71905625	    -10.54772812	      5.81630113	     92.20376159	      1.60925922	     27.61896300	      1.28307130	     -7.49999987	    -63.74242929	      0.01148592	      3.40304382	     59.72023111	    -26.24862362	      1.47109484	     57.44503757	     88.25919554	     60.29143272	    -16.62302080	     -4.07574836	     61.29599572	     69.13145733
      2.90416670	    -16.15143284	     -1.45503264	      0.15224328	      0.17889403	      0.71401500	     -0.04973597	     71.96859380	     -8.79097223	      1.86850242	     89.72544284	      1.56600440	     27.85378694	    -19.13527608	     -7.49999987	     74.37923467	    -10.08818153	      5.97617599	     92.53350726	      1.61501437	     28.01642319	      1.18736050	     -7.49999987	    -63.04277824	      0.02233476	      3.15238064	     58.83011449	    -26.63756734	      1.07585133	     59.17924182	     88.72283973	     59.95735925	    -17.09281976	     -3.71768466	     63.44968501	     69.38135873
